<svg id="visual" viewBox="0 0 960 540" width="960" height="540" xmlns="http://www.w3.org/2000/svg" xmlns:xlink="http://www.w3.org/1999/xlink" version="1.1"><rect x="0" y="0" width="960" height="540" fill="#ffffff"></rect><defs><linearGradient id="grad1_0" x1="43.8%" y1="0%" x2="100%" y2="100%"><stop offset="14.444444444444446%" stop-color="#0066ff" stop-opacity="1"></stop><stop offset="85.55555555555554%" stop-color="#0066ff" stop-opacity="1"></stop></linearGradient></defs><defs><linearGradient id="grad1_1" x1="43.8%" y1="0%" x2="100%" y2="100%"><stop offset="14.444444444444446%" stop-color="#0066ff" stop-opacity="1"></stop><stop offset="85.55555555555554%" stop-color="#acafff" stop-opacity="1"></stop></linearGradient></defs><defs><linearGradient id="grad1_2" x1="43.8%" y1="0%" x2="100%" y2="100%"><stop offset="14.444444444444446%" stop-color="#ffffff" stop-opacity="1"></stop><stop offset="85.55555555555554%" stop-color="#acafff" stop-opacity="1"></stop></linearGradient></defs><defs><linearGradient id="grad2_0" x1="0%" y1="0%" x2="56.3%" y2="100%"><stop offset="14.444444444444446%" stop-color="#0066ff" stop-opacity="1"></stop><stop offset="85.55555555555554%" stop-color="#0066ff" stop-opacity="1"></stop></linearGradient></defs><defs><linearGradient id="grad2_1" x1="0%" y1="0%" x2="56.3%" y2="100%"><stop offset="14.444444444444446%" stop-color="#acafff" stop-opacity="1"></stop><stop offset="85.55555555555554%" stop-color="#0066ff" stop-opacity="1"></stop></linearGradient></defs><defs><linearGradient id="grad2_2" x1="0%" y1="0%" x2="56.3%" y2="100%"><stop offset="14.444444444444446%" stop-color="#acafff" stop-opacity="1"></stop><stop offset="85.55555555555554%" stop-color="#ffffff" stop-opacity="1"></stop></linearGradient></defs><g transform="translate(960, 0)"><path d="M0 270C-35.1 242.4 -70.2 214.8 -113 195.7C-155.8 176.7 -206.4 166.2 -233.8 135C-261.3 103.8 -265.6 51.9 -270 0L0 0Z" fill="#d7d6ff"></path><path d="M0 180C-23.4 161.6 -46.8 143.2 -75.3 130.5C-103.9 117.8 -137.6 110.8 -155.9 90C-174.2 69.2 -177.1 34.6 -180 0L0 0Z" fill="#7789ff"></path><path d="M0 90C-11.7 80.8 -23.4 71.6 -37.7 65.2C-51.9 58.9 -68.8 55.4 -77.9 45C-87.1 34.6 -88.5 17.3 -90 0L0 0Z" fill="#0066ff"></path></g><g transform="translate(0, 540)"><path d="M0 -270C27.4 -229 54.7 -188 98.5 -170.6C142.3 -153.2 202.5 -159.5 233.8 -135C265.1 -110.5 267.6 -55.3 270 0L0 0Z" fill="#d7d6ff"></path><path d="M0 -180C18.2 -152.7 36.5 -125.3 65.7 -113.7C94.9 -102.2 135 -106.3 155.9 -90C176.8 -73.7 178.4 -36.8 180 0L0 0Z" fill="#7789ff"></path><path d="M0 -90C9.1 -76.3 18.2 -62.7 32.8 -56.9C47.4 -51.1 67.5 -53.2 77.9 -45C88.4 -36.8 89.2 -18.4 90 0L0 0Z" fill="#0066ff"></path></g></svg>