<svg id="visual" viewBox="0 0 960 540" width="960" height="540" xmlns="http://www.w3.org/2000/svg" xmlns:xlink="http://www.w3.org/1999/xlink" version="1.1"><rect x="0" y="0" width="960" height="540" fill="#ffffff"></rect><defs><linearGradient id="grad1_0" x1="43.8%" y1="100%" x2="100%" y2="0%"><stop offset="14.444444444444446%" stop-color="#0066ff" stop-opacity="1"></stop><stop offset="85.55555555555554%" stop-color="#0066ff" stop-opacity="1"></stop></linearGradient></defs><defs><linearGradient id="grad1_1" x1="43.8%" y1="100%" x2="100%" y2="0%"><stop offset="14.444444444444446%" stop-color="#0066ff" stop-opacity="1"></stop><stop offset="85.55555555555554%" stop-color="#acafff" stop-opacity="1"></stop></linearGradient></defs><defs><linearGradient id="grad1_2" x1="43.8%" y1="100%" x2="100%" y2="0%"><stop offset="14.444444444444446%" stop-color="#ffffff" stop-opacity="1"></stop><stop offset="85.55555555555554%" stop-color="#acafff" stop-opacity="1"></stop></linearGradient></defs><defs><linearGradient id="grad2_0" x1="0%" y1="100%" x2="56.3%" y2="0%"><stop offset="14.444444444444446%" stop-color="#0066ff" stop-opacity="1"></stop><stop offset="85.55555555555554%" stop-color="#0066ff" stop-opacity="1"></stop></linearGradient></defs><defs><linearGradient id="grad2_1" x1="0%" y1="100%" x2="56.3%" y2="0%"><stop offset="14.444444444444446%" stop-color="#acafff" stop-opacity="1"></stop><stop offset="85.55555555555554%" stop-color="#0066ff" stop-opacity="1"></stop></linearGradient></defs><defs><linearGradient id="grad2_2" x1="0%" y1="100%" x2="56.3%" y2="0%"><stop offset="14.444444444444446%" stop-color="#acafff" stop-opacity="1"></stop><stop offset="85.55555555555554%" stop-color="#ffffff" stop-opacity="1"></stop></linearGradient></defs><g transform="translate(960, 540)"><path d="M-270 0C-242.4 -35.1 -214.8 -70.2 -195.7 -113C-176.7 -155.8 -166.2 -206.4 -135 -233.8C-103.8 -261.3 -51.9 -265.6 0 -270L0 0Z" fill="#d7d6ff"></path><path d="M-180 0C-161.6 -23.4 -143.2 -46.8 -130.5 -75.3C-117.8 -103.9 -110.8 -137.6 -90 -155.9C-69.2 -174.2 -34.6 -177.1 0 -180L0 0Z" fill="#7789ff"></path><path d="M-90 0C-80.8 -11.7 -71.6 -23.4 -65.2 -37.7C-58.9 -51.9 -55.4 -68.8 -45 -77.9C-34.6 -87.1 -17.3 -88.5 0 -90L0 0Z" fill="#0066ff"></path></g><g transform="translate(0, 0)"><path d="M270 0C229 27.4 188 54.7 170.6 98.5C153.2 142.3 159.5 202.5 135 233.8C110.5 265.1 55.3 267.6 0 270L0 0Z" fill="#d7d6ff"></path><path d="M180 0C152.7 18.2 125.3 36.5 113.7 65.7C102.2 94.9 106.3 135 90 155.9C73.7 176.8 36.8 178.4 0 180L0 0Z" fill="#7789ff"></path><path d="M90 0C76.3 9.1 62.7 18.2 56.9 32.8C51.1 47.4 53.2 67.5 45 77.9C36.8 88.4 18.4 89.2 0 90L0 0Z" fill="#0066ff"></path></g></svg>