<svg xmlns="http://www.w3.org/2000/svg" viewBox="0 0 1920 1037" preserveAspectRatio="xMidYMid" width="1920" height="1037" xmlns:xlink="http://www.w3.org/1999/xlink" style="shape-rendering:auto;display:block;background-position-x:0%;background-position-y:0%;background-size:auto;background-origin:padding-box;background-clip:border-box;background:scroll rgb(255, 255, 255) none  repeat;width:1920px;height:1037px;;animation:none"><g style="transform:matrix(-1, 0, 0, 1, 1920, 0);;animation:none"><linearGradient y2="1" y1="0" x2="0" x1="0" id="lg-o578w6yh81n"><stop offset="0" stop-color="#0014b6"></stop>

  
<stop offset="1" stop-color="#00ffff"></stop></linearGradient>
<path opacity="0.4" fill="url(#lg-o578w6yh81n)" d="M 0 0 L 960.97 0 Q 896.8 103.7 876.79 207.4 T 696.24 414.8 T 620.23 622.2 T 662.62 829.6 T 526.57 1037 L 0 1037 Z" style="fill:url('#lg-o578w6yh81n');opacity:0.4;;animation:none"></path>
<path opacity="0.4" fill="url(#lg-o578w6yh81n)" d="M 0 0 L 907.58 0 Q 848.248 103.7 823.424 207.4 T 718.58 414.8 T 594.25 622.2 T 479.636 829.6 T 450.621 1037 L 0 1037 Z" style="fill:url('#lg-o578w6yh81n');opacity:0.4;;animation:none"></path>
<path opacity="0.4" fill="url(#lg-o578w6yh81n)" d="M 0 0 L 924.018 0 Q 946.254 103.7 922.034 207.4 T 657.709 414.8 T 666.696 622.2 T 520.024 829.6 T 414.589 1037 L 0 1037 Z" style="fill:url('#lg-o578w6yh81n');opacity:0.4;;animation:none"></path>
<path opacity="0.4" fill="url(#lg-o578w6yh81n)" d="M 0 0 L 968.632 0 Q 834.683 103.7 809.962 207.4 T 806.895 414.8 T 644.249 622.2 T 657.338 829.6 T 519.064 1037 L 0 1037 Z" style="fill:url('#lg-o578w6yh81n');opacity:0.4;;animation:none"></path>
<path opacity="0.4" fill="url(#lg-o578w6yh81n)" d="M 0 0 L 1001.67 0 Q 856.827 103.7 835.483 207.4 T 709.691 414.8 T 693.563 622.2 T 469.267 829.6 T 368.384 1037 L 0 1037 Z" style="fill:url('#lg-o578w6yh81n');opacity:0.4;;animation:none"></path>
<g></g></g><!-- [ldio] generated by https://loading.io --></svg>