<svg xmlns="http://www.w3.org/2000/svg" viewBox="0 0 1920 1037" preserveAspectRatio="xMidYMid" width="1920" height="1037" xmlns:xlink="http://www.w3.org/1999/xlink" style="shape-rendering:auto;display:block;background-position-x:0%;background-position-y:0%;background-size:auto;background-origin:padding-box;background-clip:border-box;background:scroll rgb(255, 255, 255) none  repeat;width:1920px;height:1037px;;animation:none"><g style="transform:matrix(-1, 0, 0, -1, 1920, 1037);;animation:none"><linearGradient y2="1" y1="0" x2="0" x1="0" id="lg-ca780xlr0a"><stop offset="0" stop-color="#0014b6"></stop>

  
<stop offset="1" stop-color="#00ffff"></stop></linearGradient>
<path opacity="0.4" fill="url(#lg-ca780xlr0a)" d="M 0 0 L 879.77 0 Q 878.76 103.7 835.64 207.4 T 761.81 414.8 T 753.64 622.2 T 498.6 829.6 T 414.64 1037 L 0 1037 Z" style="fill:url('#lg-ca780xlr0a');opacity:0.4;;animation:none"></path>
<path opacity="0.4" fill="url(#lg-ca780xlr0a)" d="M 0 0 L 955.065 0 Q 857.212 103.7 835.544 207.4 T 780.76 414.8 T 600.381 622.2 T 614.83 829.6 T 521.365 1037 L 0 1037 Z" style="fill:url('#lg-ca780xlr0a');opacity:0.4;;animation:none"></path>
<path opacity="0.4" fill="url(#lg-ca780xlr0a)" d="M 0 0 L 1016.16 0 Q 835.38 103.7 798.64 207.4 T 694.167 414.8 T 667.726 622.2 T 610.023 829.6 T 541.593 1037 L 0 1037 Z" style="fill:url('#lg-ca780xlr0a');opacity:0.4;;animation:none"></path>
<path opacity="0.4" fill="url(#lg-ca780xlr0a)" d="M 0 0 L 883.684 0 Q 863.698 103.7 819.492 207.4 T 755.065 414.8 T 649.941 622.2 T 600.009 829.6 T 403.089 1037 L 0 1037 Z" style="fill:url('#lg-ca780xlr0a');opacity:0.4;;animation:none"></path>
<path opacity="0.4" fill="url(#lg-ca780xlr0a)" d="M 0 0 L 885.508 0 Q 924.021 103.7 893.987 207.4 T 776.681 414.8 T 614.675 622.2 T 602.355 829.6 T 511.158 1037 L 0 1037 Z" style="fill:url('#lg-ca780xlr0a');opacity:0.4;;animation:none"></path>
<g></g></g><!-- [ldio] generated by https://loading.io --></svg>