<?xml version="1.0" encoding="utf-8"?><!-- Uploaded to: SVG Repo, www.svgrepo.com, Generator: SVG Repo Mixer Tools -->
<svg fill="#000000" width="800px" height="800px" viewBox="0 0 24 24" id="sign-out-double-arrow-2" data-name="Flat Color" xmlns="http://www.w3.org/2000/svg" class="icon flat-color"><path id="secondary" d="M21.71,12.71l-3,3a1,1,0,0,1-1.42,0,1,1,0,0,1,0-1.42L19.59,12l-2.3-2.29a1,1,0,0,1,1.42-1.42l3,3A1,1,0,0,1,21.71,12.71Zm-5-1.42-3-3a1,1,0,0,0-1.42,1.42L13.59,11H7a1,1,0,0,0,0,2h6.59l-1.3,1.29a1,1,0,0,0,0,1.42,1,1,0,0,0,1.42,0l3-3A1,1,0,0,0,16.71,11.29Z" style="fill: rgb(44, 169, 188);"></path><path id="primary" d="M7,21H4a2,2,0,0,1-2-2V5A2,2,0,0,1,4,3H7A1,1,0,0,1,7,5H4V19H7a1,1,0,0,1,0,2Z" style="fill: rgb(0, 0, 0);"></path></svg>